<svg width="36" height="36" viewBox="0 0 36 36" fill="none" xmlns="http://www.w3.org/2000/svg">
<path d="M25.5 4.5C25.894 4.10603 26.3617 3.79352 26.8764 3.58031C27.3912 3.36709 27.9428 3.25735 28.5 3.25735C29.0571 3.25735 29.6088 3.36709 30.1236 3.58031C30.6383 3.79352 31.106 4.10603 31.5 4.5C31.894 4.89396 32.2065 5.36167 32.4197 5.87641C32.6329 6.39115 32.7426 6.94284 32.7426 7.5C32.7426 8.05715 32.6329 8.60884 32.4197 9.12358C32.2065 9.63833 31.894 10.106 31.5 10.5L11.25 30.75L3 33L5.25 24.75L25.5 4.5Z" stroke="white" stroke-width="2.5" stroke-linecap="round" stroke-linejoin="round"/>
</svg>
