<svg width="35" height="35" viewBox="0 0 35 35" fill="none" xmlns="http://www.w3.org/2000/svg">
<path d="M16.0417 5.83334H5.83341C5.05987 5.83334 4.318 6.14063 3.77102 6.68761C3.22404 7.23459 2.91675 7.97645 2.91675 8.75V29.1667C2.91675 29.9402 3.22404 30.6821 3.77102 31.2291C4.318 31.776 5.05987 32.0833 5.83341 32.0833H26.2501C27.0236 32.0833 27.7655 31.776 28.3125 31.2291C28.8595 30.6821 29.1667 29.9402 29.1667 29.1667V18.9583" stroke="#797EF6" stroke-width="3" stroke-linecap="round" stroke-linejoin="round"/>
<path d="M26.9792 3.64583C27.5594 3.06567 28.3463 2.73974 29.1667 2.73974C29.9872 2.73974 30.7741 3.06567 31.3542 3.64583C31.9344 4.22599 32.2603 5.01286 32.2603 5.83333C32.2603 6.6538 31.9344 7.44067 31.3542 8.02083L17.5001 21.875L11.6667 23.3333L13.1251 17.5L26.9792 3.64583Z" stroke="#797EF6" stroke-width="3" stroke-linecap="round" stroke-linejoin="round"/>
</svg>
